# xmcd
#
# Track frame offsets: 
#        150
#        14237
#        30600
#        43625
#        63425
#        80087
#        90887
#        103350
#        118325
#        134950
#        158750
#        177487
#        201045
#
# Disc length: 2870 seconds
#
# Revision: 1
# Processed by: cddbd v1.5.2PL0 Copyright (c) Steve Scherf et al.
# Submitted via: ExactAudioCopyFreeDBPlugin 1.0
#
DISCID=be0b340d
DTITLE=Five Live - A Capella
DYEAR=1993
DGENRE=A Cappella
TTITLE0=Everybody Needs Somebody
TTITLE1=On Broadway
TTITLE2=Blue Moon
TTITLE3=Sweet Dreams
TTITLE4=I Got You (I feel good)
TTITLE5=L.O.V.E.
TTITLE6=Barbara Ann
TTITLE7=Naturally
TTITLE8=I'll Be There
TTITLE9=Stayin' Alive
TTITLE10=Gloria
TTITLE11=Pata Pata
TTITLE12=Waterloo
EXTD=
EXTT0=
EXTT1=
EXTT2=
EXTT3=
EXTT4=
EXTT5=
EXTT6=
EXTT7=
EXTT8=
EXTT9=
EXTT10=
EXTT11=
EXTT12=
PLAYORDER=
